
<svg version="1.1" id="Layer_1" xmlns="http://www.w3.org/2000/svg" xmlns:xlink="http://www.w3.org/1999/xlink" x="0px" y="0px"
	 viewBox="0 0 642 921" style="enable-background:new 0 0 642 921;" xml:space="preserve">
<style type="text/css">
	.st0{fill:#1034A6;stroke:#DEEBFF;stroke-width:20;stroke-miterlimit:10;}
	.st1{fill:#1034A6;stroke:#5793EA;stroke-width:6;stroke-miterlimit:10;}
	.st2{fill:#1034A6;}
</style>
<g>
	<g>
		<path class="st0" d="M42.3,352c25.7-88.8,79.6-163.2,126.4-214.8C230.5,69.1,292.2,26.2,302.9,19
			c202.3,141,305.9,285.2,308.2,428.7c0.3,17.2-0.9,33.9-3.3,50.3h5.8c2.5-16.8,3.6-33.6,3.3-50.4c-1.1-68.3-24.9-137.3-70.7-205.2
			C494.3,165.7,413,88.6,304.5,13.1c-1-0.7-2.2-0.7-3.2,0c-0.7,0.4-68.7,45.1-136.8,120.1c-40,44.1-72.2,90-95.8,136.3
			C54.8,296.8,44,324.4,36.2,352H42.3z"/>
		<path class="st0" d="M570.9,610c-63.7,124-187.8,216.3-257.8,268.3c-3.6,2.6-7,5.2-10.2,7.6C148,770.3,57.8,648.9,33.8,524h-5.9
			c24.1,127.2,115.7,250.6,273.3,367.8c0.5,0.4,1.1,0.6,1.7,0.6c0.6,0,1.2-0.2,1.7-0.6c3.7-2.8,7.7-5.7,11.9-8.9
			c46.2-34.3,123.4-91.8,186.9-165.4C534.2,682,558.7,646.1,577,610H570.9z"/>
	</g>
	<circle class="st0" cx="36" cy="368" r="17"/>
	<circle class="st0" cx="237" cy="532" r="17"/>
	<circle class="st0" cx="367" cy="374" r="17"/>
	<circle class="st0" cx="610" cy="498" r="17"/>
	<circle class="st0" cx="576" cy="602" r="17"/>
	<circle class="st0" cx="31" cy="515" r="17"/>
	<g>
		<path class="st0" d="M302,243.2c-1.4,0-2.5-1.1-2.5-2.5V18c0-1.4,1.1-2.5,2.5-2.5s2.5,1.1,2.5,2.5v222.7
			C304.5,242.1,303.4,243.2,302,243.2z"/>
		<path class="st0" d="M237,407.1c-0.3,0-0.6-0.1-0.9-0.2c-1.3-0.5-1.9-2-1.4-3.2l65-164.6c0.5-1.3,2-1.9,3.2-1.4
			c1.3,0.5,1.9,2,1.4,3.2l-65,164.6C238.9,406.5,238,407.1,237,407.1z"/>
		<path class="st0" d="M237.4,534.5c-1.4,0-2.5-1.1-2.5-2.5V405.3c0-1.4,1.1-2.5,2.5-2.5s2.5,1.1,2.5,2.5V532
			C239.9,533.4,238.8,534.5,237.4,534.5z"/>
	</g>
	<g>
		<path class="st0" d="M302,891.5c-1.4,0-2.5-1.1-2.5-2.5V666.3c0-1.4,1.1-2.5,2.5-2.5s2.5,1.1,2.5,2.5V889
			C304.5,890.4,303.4,891.5,302,891.5z"/>
		<path class="st0" d="M302,669.4c-0.3,0-0.6-0.1-0.9-0.2c-1.3-0.5-1.9-2-1.4-3.2l65-164.6c0.5-1.3,2-1.9,3.2-1.4
			c1.3,0.5,1.9,2,1.4,3.2l-65,164.6C303.9,668.8,303,669.4,302,669.4z"/>
		<path class="st0" d="M366.6,504.2c-1.4,0-2.5-1.1-2.5-2.5V375c0-1.4,1.1-2.5,2.5-2.5s2.5,1.1,2.5,2.5v126.7
			C369.1,503.1,368,504.2,366.6,504.2z"/>
	</g>
</g>
<g>
	<g>
		<path class="st1" d="M42.3,352c25.7-88.8,79.6-163.2,126.4-214.8C230.5,69.1,292.2,26.2,302.9,19
			c202.3,141,305.9,285.2,308.2,428.7c0.3,17.2-0.9,33.9-3.3,50.3h5.8c2.5-16.8,3.6-33.6,3.3-50.4c-1.1-68.3-24.9-137.3-70.7-205.2
			C494.3,165.7,413,88.6,304.5,13.1c-1-0.7-2.2-0.7-3.2,0c-0.7,0.4-68.7,45.1-136.8,120.1c-40,44.1-72.2,90-95.8,136.3
			C54.8,296.8,44,324.4,36.2,352H42.3z"/>
		<path class="st1" d="M570.9,610c-63.7,124-187.8,216.3-257.8,268.3c-3.6,2.6-7,5.2-10.2,7.6C148,770.3,57.8,648.9,33.8,524h-5.9
			c24.1,127.2,115.7,250.6,273.3,367.8c0.5,0.4,1.1,0.6,1.7,0.6c0.6,0,1.2-0.2,1.7-0.6c3.7-2.8,7.7-5.7,11.9-8.9
			c46.2-34.3,123.4-91.8,186.9-165.4C534.2,682,558.7,646.1,577,610H570.9z"/>
	</g>
	<circle class="st1" cx="36" cy="368" r="17"/>
	<circle class="st1" cx="237" cy="532" r="17"/>
	<circle class="st1" cx="367" cy="374" r="17"/>
	<circle class="st1" cx="610" cy="498" r="17"/>
	<circle class="st1" cx="576" cy="602" r="17"/>
	<circle class="st1" cx="31" cy="515" r="17"/>
	<g>
		<path class="st1" d="M302,243.2c-1.4,0-2.5-1.1-2.5-2.5V18c0-1.4,1.1-2.5,2.5-2.5s2.5,1.1,2.5,2.5v222.7
			C304.5,242.1,303.4,243.2,302,243.2z"/>
		<path class="st1" d="M237,407.1c-0.3,0-0.6-0.1-0.9-0.2c-1.3-0.5-1.9-2-1.4-3.2l65-164.6c0.5-1.3,2-1.9,3.2-1.4
			c1.3,0.5,1.9,2,1.4,3.2l-65,164.6C238.9,406.5,238,407.1,237,407.1z"/>
		<path class="st1" d="M237.4,534.5c-1.4,0-2.5-1.1-2.5-2.5V405.3c0-1.4,1.1-2.5,2.5-2.5s2.5,1.1,2.5,2.5V532
			C239.9,533.4,238.8,534.5,237.4,534.5z"/>
	</g>
	<g>
		<path class="st1" d="M302,891.5c-1.4,0-2.5-1.1-2.5-2.5V666.3c0-1.4,1.1-2.5,2.5-2.5s2.5,1.1,2.5,2.5V889
			C304.5,890.4,303.4,891.5,302,891.5z"/>
		<path class="st1" d="M302,669.4c-0.3,0-0.6-0.1-0.9-0.2c-1.3-0.5-1.9-2-1.4-3.2l65-164.6c0.5-1.3,2-1.9,3.2-1.4
			c1.3,0.5,1.9,2,1.4,3.2l-65,164.6C303.9,668.8,303,669.4,302,669.4z"/>
		<path class="st1" d="M366.6,504.2c-1.4,0-2.5-1.1-2.5-2.5V375c0-1.4,1.1-2.5,2.5-2.5s2.5,1.1,2.5,2.5v126.7
			C369.1,503.1,368,504.2,366.6,504.2z"/>
	</g>
</g>
<g>
	<g>
		<path class="st2" d="M42.3,352c25.7-88.8,79.6-163.2,126.4-214.8C230.5,69.1,292.2,26.2,302.9,19
			c202.3,141,305.9,285.2,308.2,428.7c0.3,17.2-0.9,33.9-3.3,50.3h5.8c2.5-16.8,3.6-33.6,3.3-50.4c-1.1-68.3-24.9-137.3-70.7-205.2
			C494.3,165.7,413,88.6,304.5,13.1c-1-0.7-2.2-0.7-3.2,0c-0.7,0.4-68.7,45.1-136.8,120.1c-40,44.1-72.2,90-95.8,136.3
			C54.8,296.8,44,324.4,36.2,352H42.3z"/>
		<path class="st2" d="M570.9,610c-63.7,124-187.8,216.3-257.8,268.3c-3.6,2.6-7,5.2-10.2,7.6C148,770.3,57.8,648.9,33.8,524h-5.9
			c24.1,127.2,115.7,250.6,273.3,367.8c0.5,0.4,1.1,0.6,1.7,0.6c0.6,0,1.2-0.2,1.7-0.6c3.7-2.8,7.7-5.7,11.9-8.9
			c46.2-34.3,123.4-91.8,186.9-165.4C534.2,682,558.7,646.1,577,610H570.9z"/>
	</g>
	<circle class="st2" cx="36" cy="368" r="17"/>
	<circle class="st2" cx="237" cy="532" r="17"/>
	<circle class="st2" cx="367" cy="374" r="17"/>
	<circle class="st2" cx="610" cy="498" r="17"/>
	<circle class="st2" cx="576" cy="602" r="17"/>
	<circle class="st2" cx="31" cy="515" r="17"/>
	<g>
		<path class="st2" d="M302,243.2c-1.4,0-2.5-1.1-2.5-2.5V18c0-1.4,1.1-2.5,2.5-2.5s2.5,1.1,2.5,2.5v222.7
			C304.5,242.1,303.4,243.2,302,243.2z"/>
		<path class="st2" d="M237,407.1c-0.3,0-0.6-0.1-0.9-0.2c-1.3-0.5-1.9-2-1.4-3.2l65-164.6c0.5-1.3,2-1.9,3.2-1.4
			c1.3,0.5,1.9,2,1.4,3.2l-65,164.6C238.9,406.5,238,407.1,237,407.1z"/>
		<path class="st2" d="M237.4,534.5c-1.4,0-2.5-1.1-2.5-2.5V405.3c0-1.4,1.1-2.5,2.5-2.5s2.5,1.1,2.5,2.5V532
			C239.9,533.4,238.8,534.5,237.4,534.5z"/>
	</g>
	<g>
		<path class="st2" d="M302,891.5c-1.4,0-2.5-1.1-2.5-2.5V666.3c0-1.4,1.1-2.5,2.5-2.5s2.5,1.1,2.5,2.5V889
			C304.5,890.4,303.4,891.5,302,891.5z"/>
		<path class="st2" d="M302,669.4c-0.3,0-0.6-0.1-0.9-0.2c-1.3-0.5-1.9-2-1.4-3.2l65-164.6c0.5-1.3,2-1.9,3.2-1.4
			c1.3,0.5,1.9,2,1.4,3.2l-65,164.6C303.9,668.8,303,669.4,302,669.4z"/>
		<path class="st2" d="M366.6,504.2c-1.4,0-2.5-1.1-2.5-2.5V375c0-1.4,1.1-2.5,2.5-2.5s2.5,1.1,2.5,2.5v126.7
			C369.1,503.1,368,504.2,366.6,504.2z"/>
	</g>
</g>
</svg>
